<svg width="520" height="520" viewBox="0 0 520 520" fill="none" xmlns="http://www.w3.org/2000/svg">
<rect width="520" height="520" rx="32" fill="#38DED6" fill-opacity="0.1"/>
<path d="M139.184 79.6651C128.74 81.3301 111.787 89.6552 102.705 97.6776C93.9256 105.246 90.6713 116.22 85.6762 129.086C81.8921 138.925 81.211 142.444 80.7569 199.206L80.7569 255.097H168.549H266.33C266.33 255.097 266.33 257.368 266.33 268.152C266.33 278.937 266.33 348.943 266.33 348.943V440.973L312.951 440.973C369.561 440.217 370.772 440.065 391.206 429.47C413.306 417.966 431.167 393.596 436.616 367.864C439.795 352.728 439.795 304.064 436.616 293.317C433.135 281.51 420.155 257.746 403.694 256.422C387.233 255.097 383.827 255.097 370.205 255.097C356.582 255.097 335.012 255.097 335.012 255.097H266.33V165.792V78.0001L206.995 78.1515C174.3 78.3029 143.725 78.9083 139.184 79.6651Z" fill="#005971"/>
<path d="M80 325.557C80 363.247 80.4541 374.751 82.2705 381.865C89.6874 410.17 115.268 435.146 141.908 440.141C146.298 440.898 170.365 441.654 195.189 441.654H240.447V359.917V278.18H160.223H80V325.557Z" fill="#38DED6"/>
</svg>
