<svg width="1208" height="321" viewBox="0 0 1208 321" fill="none" xmlns="http://www.w3.org/2000/svg">
<path d="M995 51.5333C973.533 61.4 977.933 94.2 1001.4 98.4667C1020.73 101.933 1036.07 81.6667 1027.8 63.5333C1023.93 55 1017 50.4667 1007.13 50.0667C1002.2 49.8 997.4 50.3333 995 51.5333Z" fill="#38DED6"/>
<path d="M407.667 160.2V268.467L460.067 267.8C488.733 267.4 515.4 266.6 519 265.8C543.133 261.133 559.133 248.733 566.6 229C569.133 222.6 569.667 218.467 569.667 207.667C569.533 195.933 569.133 193.4 565.933 186.333C560.733 175.133 553 167.667 540.467 161.667L529.933 156.6L535.533 153.667C544.6 149.133 552.2 141.133 556.467 131.933C559.933 124.467 560.333 122.333 560.333 109.667C560.333 97.2666 559.933 94.7333 556.733 88.0666C549.4 72.3333 535.4 61.6666 514.733 56.0666C505.267 53.5333 499.8 53.2666 456.067 52.7333L407.667 52.0666V160.2ZM505.667 91.5333C512.6 94.4666 515.533 97.2666 518.467 103.667C525.133 118.2 517.4 136.2 502.6 140.333C499.933 141 486.733 141.667 473.4 141.667H449V114.867V87.9333L474.733 88.5999C494.333 89.1333 501.533 89.7999 505.667 91.5333ZM512.333 178.6C523.267 184.467 527.667 191.667 527.667 203.8C527.667 216.733 519.133 227.8 506.867 230.867C503.8 231.667 489.4 232.333 475.133 232.333H449V203.533V174.733L478.067 175.267C504.467 175.667 507.4 175.933 512.333 178.6Z" fill="white"/>
<path d="M593 160.333V268.333H613H633V160.333V52.3333H613H593V160.333Z" fill="white"/>
<path d="M716.2 112.867C705.534 115.267 694.867 120.467 685.4 127.667C655 150.6 646.734 198.733 667.267 233.533C692.467 275.933 757.667 283.8 792.867 248.467C807.8 233.533 815.667 213.8 815.667 190.867C815.667 154.733 795.667 126.2 762.334 115C751.134 111.267 727.934 110.2 716.2 112.867ZM751 149.8C767.134 155.8 776.067 170.6 776.067 191C776.067 205.133 772.467 215.533 764.734 223.267C756.6 231.4 749 234.333 736.334 234.333C718.734 234.2 706.334 226.733 699.4 211.667C696.734 205.933 696.334 202.867 696.334 190.333C696.334 177.533 696.734 174.867 699.534 169.667C705 159.133 713.934 151.667 725 148.2C731.534 146.2 743.4 147 751 149.8Z" fill="white"/>
<path d="M1105.27 113.667C1077.4 121 1056.2 142.467 1049.67 169.8C1047.13 180.6 1047.13 199.933 1049.67 210.6C1054.87 232.6 1070.87 252.733 1090.6 262.2C1119.8 276.2 1156.33 272.467 1179.53 253.133C1214.87 223.533 1217.53 165.933 1184.87 133.533C1165.13 114.067 1133.8 106.2 1105.27 113.667ZM1146.07 150.867C1160.47 158.2 1167.93 171.667 1168.07 190.333C1168.2 205.667 1165.13 213.8 1155.8 223C1150.07 228.733 1146.6 231 1140.47 232.867C1119.67 239.4 1097.93 229 1090.33 208.867C1086.2 197.533 1086.87 178.733 1092.07 168.867C1096.2 160.733 1105.67 151.933 1113.4 149.133C1121.67 146.067 1138.6 147 1146.07 150.867Z" fill="white"/>
<path d="M814.867 119.933C815.933 122.733 821.8 138.467 828.067 155C834.333 171.533 845.267 200.333 852.333 219C859.4 237.667 866.467 256.467 868.067 260.6L871 268.333H892.333H913.8L915.533 263.267C917 259.267 965.267 131.667 970.2 118.6L971.667 115H950.333H929.133L926.6 121.933C925.267 125.8 917 150.067 908.2 175.933L892.467 222.733L874.2 169.267L856.067 115.667L834.6 115.267L813.133 115L814.867 119.933Z" fill="white"/>
<path d="M986.333 191.667V268.333H1006.33H1026.33V191.667V115H1006.33H986.333V191.667Z" fill="white"/>
<path d="M53.1333 1.46667C43.9333 2.93334 29 10.2667 21 17.3333C13.2667 24 10.4 33.6667 6.00002 45C2.66669 53.6667 2.06675 56.7666 1.66675 106.767L1.66672 156H79H165.133C165.133 156 165.133 158 165.133 167.5C165.133 177 165.133 238.667 165.133 238.667V319.733L206.2 319.733C256.067 319.067 257.133 318.933 275.133 309.6C294.6 299.467 310.333 278 315.133 255.333C317.933 242 317.933 199.133 315.133 189.667C312.067 179.267 300.633 158.333 286.133 157.167C271.633 156 268.633 156 256.633 156C244.633 156 225.633 156 225.633 156H165.133V77.3334V0L112.867 0.133362C84.0667 0.266695 57.1333 0.800008 53.1333 1.46667Z" fill="white"/>
<path d="M1 218.067C1 251.267 1.4 261.4 3 267.667C9.53333 292.6 32.0667 314.6 55.5333 319C59.4 319.667 80.6 320.333 102.467 320.333H142.333V248.333V176.333H71.6667H1V218.067Z" fill="#38DED6"/>
</svg>
