<svg width="200" height="50" viewBox="0 0 200 50" fill="none" xmlns="http://www.w3.org/2000/svg">
  <!-- Geometric B icon -->
  <g transform="translate(0, 5)">
    <path d="M10 0h20c5.523 0 10 4.477 10 10v20c0 5.523-4.477 10-10 10H10c-5.523 0-10-4.477-10-10V10C0 4.477 4.477 0 10 0z" fill="#005C63"/>
    <circle cx="20" cy="15" r="5" fill="#40E0D0"/>
  </g>
  <!-- Blovio text -->
  <path d="M60 35V15h8c6 0 10 4 10 10s-4 10-10 10h-8zm4-4h4c3.3 0 6-2.7 6-6s-2.7-6-6-6h-4v12z" fill="#005C63"/>
  <path d="M85 35V15h4v20h-4z" fill="#005C63"/>
  <path d="M95 35V15h4l8 12V15h4v20h-4l-8-12v12h-4z" fill="#005C63"/>
  <path d="M120 35V15h4v16h8v4h-12z" fill="#005C63"/>
  <path d="M135 35V15h4v16h8v4h-12z" fill="#005C63"/>
  <path d="M155 35V15h4v20h-4z" fill="#005C63"/>
  <path d="M165 35V15h4l8 12V15h4v20h-4l-8-12v12h-4z" fill="#005C63"/>
</svg>